<svg xmlns="http://www.w3.org/2000/svg" width="244" height="87" viewBox="0 0 244 87">
    <g fill="none" fill-rule="evenodd">
        <path fill="#E6BA45" d="M31.826 10.846c2.55-1.308 5.48-1.962 8.789-1.962 3.31 0 6.197.582 8.663 1.747 2.465 1.156 3.706 2.638 3.722 4.444 0 1.806-1.253 3.39-3.758 4.753-2.506 1.363-5.462 2.048-8.87 2.056-3.393 0-6.303-.609-8.73-1.826C29.213 18.841 28 17.328 28 15.521c0-1.808 1.275-3.366 3.826-4.675M33.366 1.337c2.245-.302 4.823-.453 7.735-.453 2.913 0 5.454.134 7.624.403 2.17.267 3.26.609 3.275 1.026 0 .416-1.103.782-3.307 1.096-2.205.315-4.807.473-7.806.475-2.986 0-5.547-.14-7.683-.422C31.068 3.182 30 2.832 30 2.415c0-.417 1.122-.776 3.366-1.078M28 72.247c0-1.808 1.214-3.32 3.641-4.538 2.428-1.217 5.338-1.825 8.73-1.825 3.409.008 6.365.693 8.87 2.055C51.748 69.302 53 70.887 53 72.693c-.016 1.806-1.257 3.288-3.722 4.444-2.466 1.165-5.353 1.747-8.663 1.747-3.309 0-6.24-.654-8.79-1.962C29.276 75.613 28 74.055 28 72.247M30 85.352c0-.417 1.068-.766 3.204-1.047 2.137-.28 4.697-.421 7.683-.421 3 .002 5.6.16 7.806.474 2.205.315 3.307.68 3.307 1.097-.014.417-1.106.759-3.275 1.025-2.17.27-4.711.404-7.624.404-2.912 0-5.49-.151-7.735-.453-2.244-.302-3.366-.662-3.366-1.079M55 44.884c0 7.706-6.294 14-14 14s-14-6.294-14-14 6.294-14 14-14 14 6.294 14 14"/>
        <path fill="#23403F" d="M13.9 58.884c-7.656 0-13.9-6.24-13.9-14s6.244-14 13.955-14c3.91 0 7.33 1.628 10.045 4.287l-3.312 4.07c-2.118-2.063-4.507-2.931-6.733-2.931-4.67 0-8.525 3.853-8.525 8.52 0 4.666 3.855 8.573 8.525 8.573 2.226 0 4.67-.868 6.733-3.039L24 54.488c-2.715 2.605-6.027 4.396-10.1 4.396M83 41.57v16.314h-5.412V41.569c0-3.417-2.76-6.173-6.06-6.173-3.41 0-6.116 2.756-6.116 6.173v16.315H60v-27.56h3.934l.558 2.371a10.87 10.87 0 0 1 7.252-2.811C78.02 29.884 83 35.12 83 41.569M109.617 44.672c0-4.793-3.914-8.648-8.536-8.648-4.73 0-8.535 3.855-8.535 8.648 0 4.737 3.805 8.593 8.535 8.593 4.622 0 8.536-3.856 8.536-8.593m-.054-10.907V19.884H115v38.559h-4.061l-.56-3.47c-2.393 2.368-5.764 3.91-9.352 3.91-7.775 0-14.027-6.39-14.027-14.211 0-7.877 6.252-14.212 14.027-14.212 3.262 0 6.307 1.267 8.536 3.305M132.5 58.884c-6.347 0-11.5-5.236-11.5-11.685V30.884h5.37v16.315c0 3.362 2.767 6.173 6.13 6.173s6.075-2.811 6.075-6.173V30.884H144v16.315c0 6.449-5.153 11.685-11.5 11.685M162.9 58.884c-7.656 0-13.9-6.24-13.9-14s6.244-14 13.955-14c3.91 0 7.33 1.628 10.045 4.287l-3.312 4.07c-2.118-2.063-4.507-2.931-6.733-2.931-4.67 0-8.525 3.853-8.525 8.52 0 4.666 3.855 8.573 8.525 8.573 2.226 0 4.67-.868 6.733-3.039L173 54.488c-2.715 2.605-6.027 4.396-10.1 4.396M178 53.1V21.884h5.682v8.686H193v4.807h-9.318v16.99h9.204v5.517h-9.91c-2.748 0-4.976-2.142-4.976-4.784M201.427 44.884c0 4.72 3.852 8.519 8.573 8.519 4.72 0 8.465-3.798 8.465-8.52 0-4.72-3.744-8.518-8.465-8.518s-8.573 3.798-8.573 8.519m22.573 0c0 7.705-6.294 14-14 14s-14-6.295-14-14c0-7.706 6.294-14 14-14s14 6.294 14 14M244 36.26h-3.134c-3.527 0-6.269 2.24-6.269 5.768v16.856H229v-28h4.013l.577 2.352c1.51-1.512 3.917-2.352 6.604-2.352H244v5.376z"/>
    </g>
</svg>
